<svg id="Capa_1" data-name="Capa 1" xmlns="http://www.w3.org/2000/svg" xmlns:xlink="http://www.w3.org/1999/xlink" viewBox="0 0 324 52"><defs><style>.cls-1{fill:url(#Degradado_sin_nombre_24);}.cls-2{fill:url(#Degradado_sin_nombre_24-2);}.cls-3{fill:url(#Degradado_sin_nombre_24-3);}.cls-4{fill:url(#Degradado_sin_nombre_24-4);}.cls-5{fill:url(#Degradado_sin_nombre_24-5);}.cls-6{fill:url(#Degradado_sin_nombre_24-6);}.cls-7{fill:url(#Degradado_sin_nombre_24-7);}.cls-8{fill:url(#Degradado_sin_nombre_87);}.cls-9{fill:#20278e;}.cls-10{fill:url(#Degradado_sin_nombre_54);}.cls-11{fill:url(#Degradado_sin_nombre_45);}.cls-12{fill:url(#Degradado_sin_nombre_57);}</style><linearGradient id="Degradado_sin_nombre_24" x1="89.06" y1="19.61" x2="281.75" y2="7.6" gradientUnits="userSpaceOnUse"><stop offset="0" stop-color="#263092"/><stop offset="0.28" stop-color="#252e8f"/><stop offset="0.53" stop-color="#202884"/><stop offset="0.75" stop-color="#181e72"/><stop offset="0.97" stop-color="#0e105a"/><stop offset="1" stop-color="#0c0e56"/></linearGradient><linearGradient id="Degradado_sin_nombre_24-2" x1="89.13" y1="20.57" x2="281.81" y2="8.56" xlink:href="#Degradado_sin_nombre_24"/><linearGradient id="Degradado_sin_nombre_24-3" x1="89.19" y1="21.69" x2="281.88" y2="9.68" xlink:href="#Degradado_sin_nombre_24"/><linearGradient id="Degradado_sin_nombre_24-4" x1="89.34" y1="23.96" x2="282.02" y2="11.95" xlink:href="#Degradado_sin_nombre_24"/><linearGradient id="Degradado_sin_nombre_24-5" x1="89.46" y1="25.99" x2="282.15" y2="13.98" xlink:href="#Degradado_sin_nombre_24"/><linearGradient id="Degradado_sin_nombre_24-6" x1="89.56" y1="27.53" x2="282.24" y2="15.52" xlink:href="#Degradado_sin_nombre_24"/><linearGradient id="Degradado_sin_nombre_24-7" x1="89.66" y1="29.16" x2="282.34" y2="17.16" xlink:href="#Degradado_sin_nombre_24"/><linearGradient id="Degradado_sin_nombre_87" x1="47.99" y1="45.94" x2="81.93" y2="45.94" gradientTransform="matrix(1, 0.04, -0.04, 1, -6.21, -7.72)" gradientUnits="userSpaceOnUse"><stop offset="0" stop-color="#334f8f"/><stop offset="0.02" stop-color="#345491"/><stop offset="0.21" stop-color="#3a759d"/><stop offset="0.39" stop-color="#3f8fa7"/><stop offset="0.59" stop-color="#43a2ae"/><stop offset="0.78" stop-color="#45adb3"/><stop offset="1" stop-color="#46b1b4"/></linearGradient><linearGradient id="Degradado_sin_nombre_54" x1="47.67" y1="37.16" x2="81.81" y2="37.16" gradientTransform="matrix(1, 0.04, -0.04, 1, -6.21, -7.72)" gradientUnits="userSpaceOnUse"><stop offset="0" stop-color="#2c3896"/><stop offset="0.07" stop-color="#2f419b"/><stop offset="0.29" stop-color="#375ba7"/><stop offset="0.51" stop-color="#3c6eb1"/><stop offset="0.75" stop-color="#4079b6"/><stop offset="1" stop-color="#417db8"/></linearGradient><linearGradient id="Degradado_sin_nombre_45" x1="45.56" y1="32.19" x2="73.29" y2="32.19" gradientTransform="matrix(1, 0.04, -0.04, 1, -6.21, -7.72)" gradientUnits="userSpaceOnUse"><stop offset="0" stop-color="#21346b"/><stop offset="0.31" stop-color="#202d7d"/><stop offset="0.64" stop-color="#202888"/><stop offset="1" stop-color="#20278c"/></linearGradient><linearGradient id="Degradado_sin_nombre_57" x1="20.55" y1="32.89" x2="54.63" y2="32.89" gradientTransform="matrix(1, 0.01, -0.01, 1, -1.7, -7.33)" gradientUnits="userSpaceOnUse"><stop offset="0" stop-color="#263092"/><stop offset="0.5" stop-color="#252f90"/><stop offset="0.68" stop-color="#222b89"/><stop offset="0.81" stop-color="#1d247e"/><stop offset="0.91" stop-color="#161b6d"/><stop offset="1" stop-color="#0c0f57"/><stop offset="1" stop-color="#0c0e56"/></linearGradient></defs><title>logoJIVSoft_BANNER</title><path class="cls-1" d="M113,1.12H121V25.48a9.44,9.44,0,0,1-2.76,7,10.46,10.46,0,0,1-14.16,0,9.44,9.44,0,0,1-2.76-7V22.3h7.1v3.9a1.82,1.82,0,0,0,.7,1.51,2.54,2.54,0,0,0,1.55.49,2.47,2.47,0,0,0,1.58-.51,1.84,1.84,0,0,0,.7-1.49Z"/><path class="cls-2" d="M126.58,1.12h8V34.86h-8Z"/><path class="cls-3" d="M146.67,1.12,154.77,23l8.07-21.92h8.57L159,34.86h-8.4L138.11,1.12Z"/><path class="cls-4" d="M189.71,14.9q8.13,3.18,8.13,9.42a9.76,9.76,0,0,1-3.49,7.75,13.29,13.29,0,0,1-9,3.16q-12.52,0-12.8-12.21h7.58a5.4,5.4,0,0,0,1.54,4.2,4.77,4.77,0,0,0,3.38,1.16,5.68,5.68,0,0,0,3.39-1.07,3.52,3.52,0,0,0,1.56-3,3.23,3.23,0,0,0-1.79-2.64,21.6,21.6,0,0,0-4.2-1.86,30.32,30.32,0,0,1-6.85-3.18,7.52,7.52,0,0,1-3.38-6.33,8.88,8.88,0,0,1,3.13-7c2-1.72,4.77-2.57,8.28-2.57s6.27.85,8.26,2.57a8.88,8.88,0,0,1,3.14,7v.62H189a3.63,3.63,0,0,0-1.21-3,3.9,3.9,0,0,0-2.64-.81,4.22,4.22,0,0,0-2.58.81,2.52,2.52,0,0,0-1,2.37q.1,1.18,2.13,2.22C185.1,13.11,187.08,13.89,189.71,14.9Z"/><path class="cls-5" d="M205.47,30.38A16.81,16.81,0,0,1,200.62,18a17.25,17.25,0,1,1,34.5,0,17.54,17.54,0,0,1-29.65,12.39Zm12.39-3.53a8.8,8.8,0,0,0,6.47-2.39A8.75,8.75,0,0,0,226.75,18a8.69,8.69,0,0,0-2.42-6.45,9.83,9.83,0,0,0-12.92,0A8.68,8.68,0,0,0,209,18a8.75,8.75,0,0,0,2.41,6.47A8.78,8.78,0,0,0,217.86,26.85Z"/><path class="cls-6" d="M246.77,14.74h10v6.52h-10v13.6h-8.05V1.12H259V9H246.77Z"/><path class="cls-7" d="M261,9V1.14h23.27V9h-7.61v25.9h-8.05V9Z"/><path class="cls-8" d="M71.94,34.66c.83,0,1.27.53,1.32,1.49l.46,9c.06,1-.33,1.53-1.16,1.49l-30.64.06c-.83,0-1.27-.54-1.32-1.49l-.46-9c-.06-1,.33-1.53,1.16-1.49Z"/><path class="cls-9" d="M112.51,48l-.11.24a5.39,5.39,0,0,1-2.15,2.31,6.33,6.33,0,0,1-3.21.82,6,6,0,1,1,0-12,6.23,6.23,0,0,1,3.21.82,5.43,5.43,0,0,1,2.15,2.3l.12.25h-.64A4.84,4.84,0,0,0,110,40.69,5.71,5.71,0,0,0,107,40a5.43,5.43,0,1,0,0,10.85,5.61,5.61,0,0,0,2.92-.74A4.76,4.76,0,0,0,111.88,48Z"/><path class="cls-9" d="M120.92,51.33l-3.21-4.71H115v4.71h-.57V39.45h3.91a3.59,3.59,0,0,1,0,7.17l3.21,4.71ZM115,40v6h3.34a3,3,0,0,0,0-6Z"/><path class="cls-9" d="M130.12,39.46V40H124.4v5.08h5v.57h-5v5.08h5.72v.57h-6.3V39.46Z"/><path class="cls-9" d="M132.92,47.45l-1.48,3.88h-.61l4.54-11.88h.39l4.54,11.88h-.61l-1.48-3.88Zm5.07-.57-2.43-6.35-2.42,6.35Z"/><path class="cls-9" d="M147.84,39.45V40H144V51.33h-.57V40h-3.81v-.57Z"/><path class="cls-9" d="M149.61,39.45h.56V51.33h-.56Z"/><path class="cls-9" d="M152,39.45h.6L157,50.54l4.32-11.09h.61q-.51,1.29-4.63,11.88h-.61l-4.59-11.78Z"/><path class="cls-9" d="M163.71,39.45h.56V51.33h-.56Z"/><path class="cls-9" d="M167.2,51.33V39.45h1.85a5.94,5.94,0,1,1,0,11.88Zm.56-.58h1.29a5.37,5.37,0,1,0,0-10.73h-1.29Z"/><path class="cls-9" d="M177.93,47.45l-1.48,3.88h-.62l4.55-11.88h.39l4.54,11.88h-.61l-1.48-3.88Zm5.07-.57-2.43-6.35-2.42,6.35Z"/><path class="cls-9" d="M186.62,51.33V39.45h1.84a5.94,5.94,0,1,1,0,11.88Zm.56-.58h1.28a5.37,5.37,0,1,0,0-10.73h-1.28Z"/><path class="cls-9" d="M200.76,47.73h.57V48a2.52,2.52,0,0,0,.88,2,3.93,3.93,0,0,0,4.7,0,2.52,2.52,0,0,0,.88-2,2.09,2.09,0,0,0-1-1.8,10.58,10.58,0,0,0-2.19-1,9.86,9.86,0,0,1-2.31-1,2.28,2.28,0,0,1-1-1.94,2.67,2.67,0,0,1,.94-2.12,3.87,3.87,0,0,1,4.74,0,2.7,2.7,0,0,1,.94,2.12v.28h-.57v-.28a2.12,2.12,0,0,0-.75-1.69,3.29,3.29,0,0,0-4,0,2.12,2.12,0,0,0-.75,1.69,1.83,1.83,0,0,0,.92,1.55,10.41,10.41,0,0,0,2,.87,10.09,10.09,0,0,1,2.45,1.1A2.57,2.57,0,0,1,208.36,48a3.07,3.07,0,0,1-1.07,2.42,4,4,0,0,1-2.73.94,4,4,0,0,1-2.72-.94A3,3,0,0,1,200.76,48Z"/><path class="cls-9" d="M210.92,39.45h.56V51.33h-.56Z"/><path class="cls-9" d="M214.89,51.33h-.57V39.45h.44L223,50.2V39.45h.56V51.33h-.42l-8.21-10.76Z"/><path class="cls-9" d="M230.6,39.45h.57v11.3h6.42v.58h-7Z"/><path class="cls-9" d="M239.61,39.45h.56V51.33h-.56Z"/><path class="cls-9" d="M243.51,51.33h-.57V39.45h.47l5.31,10.94L254,39.45h.46V51.33h-.57V41l-5,10.36h-.35l-5-10.36Z"/><path class="cls-9" d="M257.26,39.45h.56V51.33h-.56Z"/><path class="cls-9" d="M267.79,39.45V40H264V51.33h-.57V40H259.6v-.57Z"/><path class="cls-9" d="M275.39,39.46V40h-5.72v5.08h5v.57h-5v5.08h5.72v.57H269.1V39.46Z"/><path class="cls-9" d="M276.9,47.73h.58V48a2.54,2.54,0,0,0,.87,2,3.95,3.95,0,0,0,4.71,0,2.55,2.55,0,0,0,.88-2,2.1,2.1,0,0,0-1-1.8,10.58,10.58,0,0,0-2.19-1,9.86,9.86,0,0,1-2.31-1,2.28,2.28,0,0,1-1-1.94,2.7,2.7,0,0,1,.94-2.12,3.48,3.48,0,0,1,2.37-.81,3.44,3.44,0,0,1,2.37.81,2.67,2.67,0,0,1,.94,2.12v.28h-.57v-.28a2.14,2.14,0,0,0-.74-1.69,3.31,3.31,0,0,0-4,0,2.11,2.11,0,0,0-.74,1.69,1.82,1.82,0,0,0,.91,1.55,10.41,10.41,0,0,0,2,.87,9.9,9.9,0,0,1,2.45,1.1A2.54,2.54,0,0,1,284.5,48a3.07,3.07,0,0,1-1.07,2.42,4,4,0,0,1-2.73.94,4,4,0,0,1-2.72-.94A3,3,0,0,1,276.9,48Z"/><path class="cls-10" d="M67.26,19.36a1.34,1.34,0,0,1,1.88.67l4.78,7.68c.54.87.44,1.49-.31,1.86L46.84,44.47A1.34,1.34,0,0,1,45,43.81l-4.78-7.68c-.54-.88-.44-1.5.31-1.87Z"/><path class="cls-11" d="M55.41,9a1.39,1.39,0,0,1,2-.51l8,4.25c.91.48,1.11,1.12.59,1.91L48.45,44.5a1.38,1.38,0,0,1-2,.51l-8-4.25c-.91-.48-1.11-1.12-.6-1.9Z"/><path class="cls-12" d="M40.73,6.82c.09-1,.61-1.55,1.57-1.55l9,.05q1.61,0,1.47,1.56L51.41,37.05q-.24,5.41-2.51,7.56c-1.51,1.43-4.07,2.14-7.66,2.12l-13.55-.08a8.94,8.94,0,0,1-9.28-9.78l.55-10a1.35,1.35,0,0,1,1.53-1.49l8.84.05a1.29,1.29,0,0,1,1.45,1.51l-.42,8.29c0,.38.21.58.55.58l7.92,0q.63,0,.6-.57Z"/></svg>